<svg width="1366" height="650" viewBox="0 0 1366 650" fill="none" xmlns="http://www.w3.org/2000/svg">
<path d="M448 -6.21875e-06C431.698 19.804 416.312 36.9825 414.013 39.2022C402.063 50.7482 389.2 62.6133 374.171 69.9209C362.401 75.6506 350.291 81.3247 338.156 86.1977C315.545 95.2846 292.992 103.962 270.804 114.142C246.216 125.431 223.948 141.968 201.586 157.124C188.706 165.854 175.771 174.501 163.45 184.011C152.137 192.723 139.406 199.323 128.218 208.174C120.442 214.313 111.168 217.66 102.05 221.427C79.2893 230.826 55.0622 234.336 30.6479 236.209C19.9593 237.034 10.0299 237.26 0 236.666V-6.21875e-06H448Z" fill="#000000" fill-opacity=".15"/>
</svg>
